<?xml version="1.0" encoding="UTF-8"?>
<svg width="1920" height="1080" viewBox="0 0 1920 1080" xmlns="http://www.w3.org/2000/svg">
    <defs>
        <linearGradient id="skyGradient" x1="0%" y1="0%" x2="0%" y2="100%">
            <stop offset="0%" style="stop-color:#1a237e"/>
            <stop offset="100%" style="stop-color:#303f9f"/>
        </linearGradient>
        
        <!-- Pattern edificio base -->
        <pattern id="windowPattern" x="0" y="0" width="20" height="20" patternUnits="userSpaceOnUse">
            <rect x="2" y="2" width="16" height="16" fill="#ffd54f" opacity="0.3"/>
        </pattern>
    </defs>
    
    <!-- Sfondo cielo -->
    <rect width="1920" height="1080" fill="url(#skyGradient)"/>
    
    <!-- Stelle -->
    <g fill="#fff" opacity="0.5">
        <circle cx="100" cy="100" r="1"/>
        <circle cx="500" cy="200" r="1"/>
        <circle cx="900" cy="150" r="1"/>
        <circle cx="1300" cy="180" r="1"/>
        <circle cx="1700" cy="120" r="1"/>
        <circle cx="300" cy="250" r="1"/>
        <circle cx="700" cy="80" r="1"/>
        <circle cx="1100" cy="220" r="1"/>
        <circle cx="1500" cy="90" r="1"/>
        <circle cx="1900" cy="170" r="1"/>
    </g>
    
    <!-- Edifici -->
    <g transform="translate(0,300)">
        <!-- Grattacielo 1 -->
        <rect x="100" y="200" width="150" height="600" fill="#1a237e"/>
        <rect x="110" y="220" width="130" height="560" fill="url(#windowPattern)"/>
        
        <!-- Grattacielo 2 -->
        <rect x="300" y="100" width="200" height="700" fill="#283593"/>
        <rect x="320" y="120" width="160" height="660" fill="url(#windowPattern)"/>
        
        <!-- Grattacielo 3 -->
        <rect x="600" y="0" width="180" height="800" fill="#1a237e"/>
        <rect x="620" y="20" width="140" height="760" fill="url(#windowPattern)"/>
        
        <!-- Grattacielo 4 -->
        <rect x="900" y="150" width="160" height="650" fill="#283593"/>
        <rect x="920" y="170" width="120" height="610" fill="url(#windowPattern)"/>
        
        <!-- Grattacielo 5 -->
        <rect x="1200" y="50" width="190" height="750" fill="#1a237e"/>
        <rect x="1220" y="70" width="150" height="710" fill="url(#windowPattern)"/>
        
        <!-- Grattacielo 6 -->
        <rect x="1500" y="200" width="170" height="600" fill="#283593"/>
        <rect x="1520" y="220" width="130" height="560" fill="url(#windowPattern)"/>
        
        <!-- Grattacielo 7 -->
        <rect x="1700" y="100" width="140" height="700" fill="#1a237e"/>
        <rect x="1720" y="120" width="100" height="660" fill="url(#windowPattern)"/>
    </g>
    
    <!-- Overlay sfumato -->
    <rect width="1920" height="1080" fill="url(#skyGradient)" opacity="0.3"/>
</svg>
