<?xml version="1.0" encoding="UTF-8"?>
<svg width="1920" height="1080" viewBox="0 0 1920 1080" xmlns="http://www.w3.org/2000/svg">
    <!-- Background -->
    <rect width="100%" height="100%" fill="#1a1a1a"/>
    
    <!-- Grid di strade -->
    <g stroke="#333" stroke-width="2">
        <!-- Strade orizzontali -->
        <line x1="0" y1="200" x2="1920" y2="200"/>
        <line x1="0" y1="400" x2="1920" y2="400"/>
        <line x1="0" y1="600" x2="1920" y2="600"/>
        <line x1="0" y1="800" x2="1920" y2="800"/>
        <!-- Strade verticali -->
        <line x1="300" y1="0" x2="300" y2="1080"/>
        <line x1="600" y1="0" x2="600" y2="1080"/>
        <line x1="900" y1="0" x2="900" y2="1080"/>
        <line x1="1200" y1="0" x2="1200" y2="1080"/>
        <line x1="1500" y1="0" x2="1500" y2="1080"/>
        <line x1="1800" y1="0" x2="1800" y2="1080"/>
    </g>

    <!-- Edifici -->
    <g fill="#2a2a2a" stroke="#333" stroke-width="1">
        <!-- Blocco 1 -->
        <rect x="50" y="50" width="200" height="100"/>
        <rect x="70" y="70" width="160" height="60" fill="#3a3a3a"/>
        
        <!-- Blocco 2 -->
        <rect x="350" y="250" width="150" height="150"/>
        <rect x="370" y="270" width="110" height="110" fill="#3a3a3a"/>
        
        <!-- Blocco 3 -->
        <rect x="650" y="450" width="180" height="120"/>
        <rect x="670" y="470" width="140" height="80" fill="#3a3a3a"/>
        
        <!-- Blocco 4 -->
        <rect x="950" y="150" width="160" height="160"/>
        <rect x="970" y="170" width="120" height="120" fill="#3a3a3a"/>
        
        <!-- Blocco 5 -->
        <rect x="1250" y="350" width="200" height="100"/>
        <rect x="1270" y="370" width="160" height="60" fill="#3a3a3a"/>
        
        <!-- Blocco 6 -->
        <rect x="1550" y="550" width="140" height="140"/>
        <rect x="1570" y="570" width="100" height="100" fill="#3a3a3a"/>
    </g>

    <!-- Parchi e aree verdi -->
    <g fill="#1e3320" stroke="#234026" stroke-width="1">
        <circle cx="200" cy="700" r="80"/>
        <circle cx="800" cy="300" r="60"/>
        <circle cx="1400" cy="800" r="70"/>
    </g>

    <!-- Dettagli stradali -->
    <g stroke="#444" stroke-width="1">
        <!-- Incroci -->
        <circle cx="300" cy="200" r="5" fill="#333"/>
        <circle cx="600" cy="400" r="5" fill="#333"/>
        <circle cx="900" cy="600" r="5" fill="#333"/>
        <circle cx="1200" cy="800" r="5" fill="#333"/>
        <circle cx="1500" cy="200" r="5" fill="#333"/>
    </g>

    <!-- Pattern di texture -->
    <defs>
        <pattern id="grid" width="40" height="40" patternUnits="userSpaceOnUse">
            <path d="M 40 0 L 0 0 0 40" fill="none" stroke="#222" stroke-width="0.5"/>
        </pattern>
    </defs>
    <rect width="100%" height="100%" fill="url(#grid)" opacity="0.3"/>
</svg>
